<svg width="37" height="30" viewBox="0 0 37 30" fill="none" xmlns="http://www.w3.org/2000/svg">
<path d="M9.72 15.24L16.44 0L10.2 0L2.88 13.08C2.16 14.52 1.44 15.84 0.840001 17.16C0.24 18.6 0 20.16 0 21.84C0 24.12 0.720001 25.92 2.16 27.24C3.6 28.56 5.28 29.16 7.32 29.16C9.36 29.16 11.16 28.56 12.6 27.12C14.04 25.8 14.76 24.12 14.76 21.96C14.76 19.92 14.16 18.36 13.08 17.4C12 16.44 10.92 15.72 9.72 15.24ZM30 15.24L36.72 0L30.48 0L23.16 13.08C22.44 14.52 21.72 15.84 21.12 17.16C20.52 18.6 20.28 20.16 20.28 21.84C20.28 24.12 21 25.92 22.44 27.24C23.88 28.56 25.56 29.16 27.6 29.16C29.64 29.16 31.44 28.56 32.88 27.12C34.32 25.8 35.04 24.12 35.04 21.96C35.04 19.92 34.44 18.36 33.36 17.4C32.28 16.44 31.2 15.72 30 15.24Z" fill="#EBF1FF"/>
</svg>
